<svg width="75" height="75" viewBox="0 0 75 75" fill="none" xmlns="http://www.w3.org/2000/svg">
<g clip-path="url(#clip0_500_767)">
<path d="M60.9566 16.7624C59.1984 15.0042 56.8139 14.0165 54.3275 14.0165C51.8411 14.0165 49.4565 15.0042 47.6983 16.7624C46.3262 18.1331 45.4129 19.8957 45.0844 21.8072C44.7559 23.7187 45.0284 25.6851 45.8643 27.4353L43.2789 30.0206L36.6498 23.3915L32.2304 27.8109L38.8595 34.44L19.1489 54.1506C17.801 52.2282 16.5856 50.0848 15.7018 47.8309C14.7737 45.4886 14.1992 43.1905 13.9561 40.8703C13.713 38.5501 13.8235 36.4067 14.3096 34.4179L21.1818 34.44L18.9721 18.9721L12.343 25.6012C10.1996 27.7446 8.78537 30.3521 8.14456 33.4236C7.50374 36.4951 7.43745 39.7433 8.03407 43.1684C8.5423 46.5051 9.58086 49.7533 11.0835 52.8469C12.6082 55.9626 14.4864 58.6805 16.7624 60.9565C19.0384 63.2325 21.7785 65.0887 24.8941 66.6134C27.9877 68.116 31.236 69.1546 34.5506 69.6849C37.9977 70.3036 41.2018 70.2373 44.2954 69.5744C47.3669 68.9336 49.9743 67.5194 52.1178 65.376L58.7469 58.7468L43.2789 56.5371L43.301 63.4093C41.3123 63.8955 39.1689 64.0059 36.8487 63.7629C34.5285 63.5198 32.2304 62.9453 29.8881 62.0172C27.6342 61.1333 25.4908 59.918 23.5683 58.5701L43.2789 38.8595L49.9081 45.4886L54.3275 41.0692L47.6983 34.44L50.3058 31.8326C52.0512 32.6662 54.0116 32.9395 55.9185 32.6151C57.8253 32.2907 59.5851 31.3845 60.9566 30.0206C62.7147 28.2625 63.7025 25.8779 63.7025 23.3915C63.7025 20.9051 62.7147 18.5205 60.9566 16.7624ZM56.5372 21.1818C57.1232 21.7678 57.4525 22.5627 57.4525 23.3915C57.4525 24.2203 57.1232 25.0152 56.5372 25.6012C55.9511 26.1873 55.1563 26.5165 54.3275 26.5165C53.4987 26.5165 52.7038 26.1873 52.1178 25.6012C51.5317 25.0152 51.2025 24.2203 51.2025 23.3915C51.2025 22.5627 51.5317 21.7678 52.1178 21.1818C52.7038 20.5957 53.4987 20.2665 54.3275 20.2665C55.1563 20.2665 55.9511 20.5957 56.5372 21.1818Z" fill="#7048EC"/>
</g>
<defs>
<clipPath id="clip0_500_767">
<rect width="75" height="75" fill="white"/>
</clipPath>
</defs>
</svg>
