<svg width="300" height="80" viewBox="0 0 300 80" fill="none" xmlns="http://www.w3.org/2000/svg">
<g clip-path="url(#clip0_136_1218)">
<path d="M96.696 21.528C96.7387 22.7227 96.76 23.4907 96.76 23.832C96.76 24.1733 96.7387 24.92 96.696 26.072C96.632 27.8213 96.1733 29.368 95.32 30.712C94.488 32.056 93.336 33.112 91.864 33.88C90.392 34.6267 88.6853 35 86.744 35H78.104C77.8693 35 77.6667 34.9147 77.496 34.744C77.3253 34.5733 77.24 34.3707 77.24 34.136V13.464C77.24 13.2293 77.3253 13.0267 77.496 12.856C77.6667 12.6853 77.8693 12.6 78.104 12.6H86.584C88.5253 12.6 90.2427 12.984 91.736 13.752C93.2507 14.4987 94.4347 15.5547 95.288 16.92C96.1627 18.264 96.632 19.8 96.696 21.528ZM83.16 17.72V29.88H86.584C89.272 29.88 90.6693 28.6533 90.776 26.2C90.8187 24.9627 90.84 24.152 90.84 23.768C90.84 23.3413 90.8187 22.552 90.776 21.4C90.712 20.184 90.3067 19.2667 89.56 18.648C88.8347 18.0293 87.7893 17.72 86.424 17.72H83.16ZM106.285 26.296V29.88H116.397C116.632 29.88 116.834 29.9653 117.005 30.136C117.176 30.3067 117.261 30.5093 117.261 30.744V34.136C117.261 34.3707 117.176 34.5733 117.005 34.744C116.834 34.9147 116.632 35 116.397 35H101.229C100.994 35 100.792 34.9147 100.621 34.744C100.45 34.5733 100.365 34.3707 100.365 34.136V13.464C100.365 13.2293 100.45 13.0267 100.621 12.856C100.792 12.6853 100.994 12.6 101.229 12.6H116.141C116.376 12.6 116.578 12.6853 116.749 12.856C116.92 13.0267 117.005 13.2293 117.005 13.464V16.856C117.005 17.0907 116.92 17.2933 116.749 17.464C116.578 17.6347 116.376 17.72 116.141 17.72H106.285V21.176H115.437C115.672 21.176 115.874 21.2613 116.045 21.432C116.216 21.6027 116.301 21.8053 116.301 22.04V25.432C116.301 25.6667 116.216 25.8693 116.045 26.04C115.874 26.2107 115.672 26.296 115.437 26.296H106.285ZM77.6665 73C77.4318 73 77.2292 72.9147 77.0585 72.744C76.8878 72.5733 76.8025 72.3707 76.8025 72.136V51.464C76.8025 51.2293 76.8878 51.0267 77.0585 50.856C77.2292 50.6853 77.4318 50.6 77.6665 50.6H87.9705C89.7838 50.6 91.2558 50.92 92.3865 51.56C93.5172 52.2 94.3278 53.0213 94.8185 54.024C95.3305 55.0053 95.5865 56.0827 95.5865 57.256C95.5865 58.3227 95.3945 59.1867 95.0105 59.848C94.6478 60.488 94.2425 60.9787 93.7945 61.32C94.6052 61.8747 95.1812 62.536 95.5225 63.304C95.8638 64.0507 96.0345 64.968 96.0345 66.056C96.0345 68.04 95.4372 69.6933 94.2425 71.016C93.0478 72.3387 91.1812 73 88.6425 73H77.6665ZM82.7225 55.56V59.208H87.6825C88.3225 59.208 88.8025 59.048 89.1225 58.728C89.4638 58.408 89.6345 57.96 89.6345 57.384C89.6345 56.808 89.4638 56.36 89.1225 56.04C88.8025 55.72 88.3225 55.56 87.6825 55.56H82.7225ZM88.0025 68.04C88.6425 68.04 89.1545 67.8587 89.5385 67.496C89.9225 67.1333 90.1145 66.664 90.1145 66.088C90.1145 65.512 89.9225 65.0427 89.5385 64.68C89.1545 64.3173 88.6425 64.136 88.0025 64.136H82.7225V68.04H88.0025ZM117.59 71.816C117.675 72.0293 117.718 72.1893 117.718 72.296C117.718 72.488 117.643 72.6587 117.494 72.808C117.366 72.936 117.206 73 117.014 73H112.982C112.619 73 112.331 72.9253 112.118 72.776C111.926 72.6053 111.798 72.4133 111.734 72.2L110.838 69.544H102.326L101.43 72.2C101.366 72.4133 101.227 72.6053 101.014 72.776C100.822 72.9253 100.544 73 100.182 73H96.1497C95.9578 73 95.7871 72.936 95.6378 72.808C95.5098 72.6587 95.4458 72.488 95.4458 72.296C95.4458 72.1893 95.4884 72.0293 95.5738 71.816L102.55 51.656C102.656 51.3573 102.827 51.112 103.062 50.92C103.296 50.7067 103.606 50.6 103.99 50.6H109.174C109.558 50.6 109.867 50.7067 110.102 50.92C110.336 51.112 110.507 51.3573 110.614 51.656L117.59 71.816ZM109.174 64.584L106.582 56.904L103.99 64.584H109.174ZM136.751 50.6C136.985 50.6 137.188 50.6853 137.359 50.856C137.529 51.0267 137.615 51.2293 137.615 51.464V54.856C137.615 55.0907 137.529 55.2933 137.359 55.464C137.188 55.6347 136.985 55.72 136.751 55.72H131.119V72.136C131.119 72.3707 131.033 72.5733 130.863 72.744C130.692 72.9147 130.489 73 130.255 73H126.062C125.828 73 125.625 72.9147 125.455 72.744C125.284 72.5733 125.199 72.3707 125.199 72.136V55.72H119.567C119.332 55.72 119.129 55.6347 118.959 55.464C118.788 55.2933 118.703 55.0907 118.703 54.856V51.464C118.703 51.2293 118.788 51.0267 118.959 50.856C119.129 50.6853 119.332 50.6 119.567 50.6H136.751ZM156.938 50.6C157.173 50.6 157.375 50.6853 157.546 50.856C157.717 51.0267 157.802 51.2293 157.802 51.464V54.856C157.802 55.0907 157.717 55.2933 157.546 55.464C157.375 55.6347 157.173 55.72 156.938 55.72H151.306V72.136C151.306 72.3707 151.221 72.5733 151.05 72.744C150.879 72.9147 150.677 73 150.442 73H146.25C146.015 73 145.813 72.9147 145.642 72.744C145.471 72.5733 145.386 72.3707 145.386 72.136V55.72H139.754C139.519 55.72 139.317 55.6347 139.146 55.464C138.975 55.2933 138.89 55.0907 138.89 54.856V51.464C138.89 51.2293 138.975 51.0267 139.146 50.856C139.317 50.6853 139.519 50.6 139.754 50.6H156.938ZM176.358 67.88C176.592 67.88 176.795 67.9653 176.966 68.136C177.136 68.3067 177.222 68.5093 177.222 68.744V72.136C177.222 72.3707 177.136 72.5733 176.966 72.744C176.795 72.9147 176.592 73 176.358 73H161.542C161.307 73 161.104 72.9147 160.934 72.744C160.763 72.5733 160.678 72.3707 160.678 72.136V51.464C160.678 51.2293 160.763 51.0267 160.934 50.856C161.104 50.6853 161.307 50.6 161.542 50.6H165.734C165.968 50.6 166.171 50.6853 166.342 50.856C166.512 51.0267 166.598 51.2293 166.598 51.464V67.88H176.358ZM185.879 64.296V67.88H195.991C196.225 67.88 196.428 67.9653 196.599 68.136C196.769 68.3067 196.855 68.5093 196.855 68.744V72.136C196.855 72.3707 196.769 72.5733 196.599 72.744C196.428 72.9147 196.225 73 195.991 73H180.823C180.588 73 180.385 72.9147 180.215 72.744C180.044 72.5733 179.959 72.3707 179.959 72.136V51.464C179.959 51.2293 180.044 51.0267 180.215 50.856C180.385 50.6853 180.588 50.6 180.823 50.6H195.735C195.969 50.6 196.172 50.6853 196.343 50.856C196.513 51.0267 196.599 51.2293 196.599 51.464V54.856C196.599 55.0907 196.513 55.2933 196.343 55.464C196.172 55.6347 195.969 55.72 195.735 55.72H185.879V59.176H195.031C195.265 59.176 195.468 59.2613 195.639 59.432C195.809 59.6027 195.895 59.8053 195.895 60.04V63.432C195.895 63.6667 195.809 63.8693 195.639 64.04C195.468 64.2107 195.265 64.296 195.031 64.296H185.879ZM218.249 56.584C218.249 56.776 218.175 56.9467 218.025 57.096C217.897 57.224 217.748 57.288 217.577 57.288H213.385C213.087 57.288 212.852 57.256 212.681 57.192C212.511 57.1067 212.319 56.968 212.105 56.776C212.063 56.7333 211.924 56.5947 211.689 56.36C211.455 56.104 211.081 55.88 210.569 55.688C210.079 55.496 209.503 55.4 208.841 55.4C207.924 55.4 207.167 55.528 206.569 55.784C205.993 56.0187 205.705 56.4347 205.705 57.032C205.705 57.4587 205.887 57.8 206.249 58.056C206.612 58.2907 207.167 58.504 207.913 58.696C208.681 58.888 210.004 59.176 211.881 59.56C214.292 60.0507 216.063 60.8187 217.193 61.864C218.324 62.9093 218.889 64.4027 218.889 66.344C218.889 67.752 218.463 68.9893 217.609 70.056C216.777 71.1013 215.604 71.912 214.089 72.488C212.596 73.0427 210.9 73.32 209.001 73.32C207.167 73.32 205.503 73 204.009 72.36C202.516 71.72 201.343 70.888 200.489 69.864C199.636 68.84 199.188 67.784 199.145 66.696C199.145 66.504 199.209 66.344 199.337 66.216C199.487 66.0667 199.647 65.992 199.817 65.992H204.009C204.479 65.992 204.884 66.1413 205.225 66.44C205.289 66.504 205.46 66.696 205.737 67.016C206.015 67.3147 206.431 67.592 206.985 67.848C207.561 68.0827 208.233 68.2 209.001 68.2C211.647 68.2 212.969 67.6347 212.969 66.504C212.969 66.1413 212.777 65.8427 212.393 65.608C212.031 65.352 211.508 65.1387 210.825 64.968C210.143 64.7973 209.055 64.552 207.561 64.232L206.121 63.944C203.945 63.4747 202.345 62.696 201.321 61.608C200.297 60.4987 199.785 59.0267 199.785 57.192C199.785 55.9547 200.159 54.8133 200.905 53.768C201.652 52.7013 202.708 51.8587 204.073 51.24C205.46 50.6 207.049 50.28 208.841 50.28C210.569 50.28 212.148 50.6107 213.577 51.272C215.007 51.912 216.127 52.7227 216.937 53.704C217.769 54.6853 218.207 55.6453 218.249 56.584ZM240.164 50.6C240.398 50.6 240.601 50.6853 240.772 50.856C240.942 51.0267 241.028 51.2293 241.028 51.464V72.136C241.028 72.3707 240.942 72.5733 240.772 72.744C240.601 72.9147 240.398 73 240.164 73H235.972C235.737 73 235.534 72.9147 235.364 72.744C235.193 72.5733 235.108 72.3707 235.108 72.136V64.296H228.004V72.136C228.004 72.3707 227.918 72.5733 227.748 72.744C227.577 72.9147 227.374 73 227.14 73H222.948C222.713 73 222.51 72.9253 222.34 72.776C222.169 72.6053 222.084 72.392 222.084 72.136V51.464C222.084 51.2293 222.169 51.0267 222.34 50.856C222.51 50.6853 222.713 50.6 222.948 50.6H227.14C227.374 50.6 227.577 50.6853 227.748 50.856C227.918 51.0267 228.004 51.2293 228.004 51.464V59.176H235.108V51.464C235.108 51.2293 235.193 51.0267 235.364 50.856C235.534 50.6853 235.737 50.6 235.972 50.6H240.164ZM246.385 73C246.151 73 245.948 72.9147 245.777 72.744C245.607 72.5733 245.521 72.3707 245.521 72.136V51.464C245.521 51.2293 245.607 51.0267 245.777 50.856C245.948 50.6853 246.151 50.6 246.385 50.6H250.577C250.812 50.6 251.015 50.6853 251.185 50.856C251.356 51.0267 251.441 51.2293 251.441 51.464V72.136C251.441 72.3707 251.356 72.5733 251.185 72.744C251.015 72.9147 250.812 73 250.577 73H246.385ZM265.944 50.6C268.717 50.6 270.882 51.24 272.44 52.52C274.018 53.7787 274.808 55.6347 274.808 58.088C274.808 60.5413 274.018 62.408 272.44 63.688C270.882 64.968 268.717 65.608 265.944 65.608H261.848V72.136C261.848 72.3707 261.762 72.5733 261.592 72.744C261.421 72.9147 261.218 73 260.984 73H256.792C256.557 73 256.354 72.9147 256.184 72.744C256.013 72.5733 255.928 72.3707 255.928 72.136V51.464C255.928 51.2293 256.013 51.0267 256.184 50.856C256.354 50.6853 256.557 50.6 256.792 50.6H265.944ZM265.784 60.616C266.722 60.616 267.469 60.4133 268.024 60.008C268.6 59.5813 268.888 58.9413 268.888 58.088C268.888 57.2347 268.6 56.6053 268.024 56.2C267.469 55.7733 266.722 55.56 265.784 55.56H261.848V60.616H265.784Z" fill="white"/>
<g clip-path="url(#clip1_136_1218)">
<path d="M60.9566 19.2907C59.1984 17.5325 56.8139 16.5448 54.3275 16.5448C51.8411 16.5448 49.4565 17.5325 47.6983 19.2907C46.3262 20.6614 45.4129 22.424 45.0844 24.3355C44.7559 26.247 45.0284 28.2134 45.8643 29.9636L43.2789 32.5489L36.6498 25.9198L32.2304 30.3392L38.8595 36.9683L19.1489 56.6789C17.801 54.7565 16.5856 52.6131 15.7018 50.3592C14.7737 48.0169 14.1992 45.7188 13.9561 43.3986C13.713 41.0784 13.8235 38.935 14.3096 36.9462L21.1818 36.9683L18.9721 21.5004L12.343 28.1295C10.1996 30.2729 8.78537 32.8804 8.14456 35.9519C7.50374 39.0234 7.43745 42.2716 8.03407 45.6967C8.5423 49.0333 9.58087 52.2816 11.0835 55.3752C12.6082 58.4909 14.4864 61.2088 16.7624 63.4848C19.0384 65.7608 21.7785 67.617 24.8941 69.1417C27.9877 70.6443 31.236 71.6829 34.5506 72.2132C37.9977 72.8319 41.2018 72.7656 44.2954 72.1027C47.3669 71.4619 49.9743 70.0477 52.1178 67.9042L58.7469 61.2751L43.2789 59.0654L43.301 65.9376C41.3123 66.4237 39.1689 66.5342 36.8487 66.2912C34.5285 66.0481 32.2304 65.4736 29.8881 64.5455C27.6342 63.6616 25.4908 62.4463 23.5683 61.0983L43.2789 41.3877L49.9081 48.0169L54.3275 43.5975L47.6983 36.9683L50.3058 34.3609C52.0512 35.1945 54.0116 35.4678 55.9185 35.1434C57.8253 34.819 59.5851 33.9128 60.9566 32.5489C62.7147 30.7908 63.7025 28.4062 63.7025 25.9198C63.7025 23.4334 62.7147 21.0488 60.9566 19.2907ZM56.5372 23.7101C57.1232 24.2961 57.4525 25.091 57.4525 25.9198C57.4525 26.7486 57.1232 27.5434 56.5372 28.1295C55.9511 28.7156 55.1563 29.0448 54.3275 29.0448C53.4987 29.0448 52.7038 28.7156 52.1178 28.1295C51.5317 27.5434 51.2025 26.7486 51.2025 25.9198C51.2025 25.091 51.5317 24.2961 52.1178 23.7101C52.7038 23.124 53.4987 22.7948 54.3275 22.7948C55.1563 22.7948 55.9511 23.124 56.5372 23.7101Z" fill="#7048EC"/>
</g>
</g>
<defs>
<clipPath id="clip0_136_1218">
<rect width="300" height="80" fill="white"/>
</clipPath>
<clipPath id="clip1_136_1218">
<rect width="75" height="75" fill="white" transform="translate(0 2.52829)"/>
</clipPath>
</defs>
</svg>
