<svg width="203" height="53" viewBox="0 0 203 53" fill="none" xmlns="http://www.w3.org/2000/svg">
<path d="M47.0391 43C46.9071 43 46.7991 42.958 46.7151 42.874C46.6311 42.79 46.5891 42.682 46.5891 42.55V30.85C46.5891 30.718 46.6311 30.61 46.7151 30.526C46.7991 30.442 46.9071 30.4 47.0391 30.4H52.5291C53.5611 30.4 54.4071 30.544 55.0671 30.832C55.7271 31.12 56.2131 31.534 56.5251 32.074C56.8491 32.602 57.0111 33.232 57.0111 33.964C57.0111 34.396 56.9271 34.78 56.7591 35.116C56.6031 35.44 56.4051 35.71 56.1651 35.926C55.9371 36.142 55.7211 36.298 55.5171 36.394C55.9731 36.61 56.3751 36.964 56.7231 37.456C57.0831 37.948 57.2631 38.524 57.2631 39.184C57.2631 39.976 57.0831 40.66 56.7231 41.236C56.3751 41.8 55.8591 42.238 55.1751 42.55C54.5031 42.85 53.6751 43 52.6911 43H47.0391ZM49.8111 40.66H52.3311C52.8471 40.66 53.2371 40.51 53.5011 40.21C53.7651 39.91 53.8971 39.568 53.8971 39.184C53.8971 38.764 53.7591 38.41 53.4831 38.122C53.2191 37.834 52.8351 37.69 52.3311 37.69H49.8111V40.66ZM49.8111 35.404H52.1691C52.6611 35.404 53.0271 35.278 53.2671 35.026C53.5191 34.774 53.6451 34.45 53.6451 34.054C53.6451 33.67 53.5191 33.358 53.2671 33.118C53.0271 32.866 52.6611 32.74 52.1691 32.74H49.8111V35.404ZM58.3671 43C58.2711 43 58.1811 42.964 58.0971 42.892C58.0251 42.808 57.9891 42.718 57.9891 42.622C57.9891 42.562 57.9951 42.508 58.0071 42.46L62.2371 30.904C62.2731 30.772 62.3451 30.658 62.4531 30.562C62.5731 30.454 62.7351 30.4 62.9391 30.4H65.6031C65.8071 30.4 65.9631 30.454 66.0711 30.562C66.1911 30.658 66.2691 30.772 66.3051 30.904L70.5171 42.46C70.5411 42.508 70.5531 42.562 70.5531 42.622C70.5531 42.718 70.5111 42.808 70.4271 42.892C70.3551 42.964 70.2651 43 70.1571 43H67.9431C67.7631 43 67.6251 42.958 67.5291 42.874C67.4451 42.778 67.3911 42.694 67.3671 42.622L66.6651 40.786H61.8591L61.1751 42.622C61.1511 42.694 61.0971 42.778 61.0131 42.874C60.9291 42.958 60.7851 43 60.5811 43H58.3671ZM62.5971 38.194H65.9451L64.2531 33.442L62.5971 38.194ZM73.9107 43C73.7787 43 73.6707 42.958 73.5867 42.874C73.5027 42.79 73.4607 42.682 73.4607 42.55V33.226H70.2567C70.1247 33.226 70.0167 33.184 69.9327 33.1C69.8487 33.004 69.8067 32.896 69.8067 32.776V30.85C69.8067 30.718 69.8487 30.61 69.9327 30.526C70.0167 30.442 70.1247 30.4 70.2567 30.4H79.9407C80.0727 30.4 80.1807 30.442 80.2647 30.526C80.3487 30.61 80.3907 30.718 80.3907 30.85V32.776C80.3907 32.896 80.3487 33.004 80.2647 33.1C80.1807 33.184 80.0727 33.226 79.9407 33.226H76.7367V42.55C76.7367 42.682 76.6947 42.79 76.6107 42.874C76.5267 42.958 76.4187 43 76.2867 43H73.9107ZM85.2486 43C85.1166 43 85.0086 42.958 84.9246 42.874C84.8406 42.79 84.7986 42.682 84.7986 42.55V33.226H81.5946C81.4626 33.226 81.3546 33.184 81.2706 33.1C81.1866 33.004 81.1446 32.896 81.1446 32.776V30.85C81.1446 30.718 81.1866 30.61 81.2706 30.526C81.3546 30.442 81.4626 30.4 81.5946 30.4H91.2786C91.4106 30.4 91.5186 30.442 91.6026 30.526C91.6866 30.61 91.7286 30.718 91.7286 30.85V32.776C91.7286 32.896 91.6866 33.004 91.6026 33.1C91.5186 33.184 91.4106 33.226 91.2786 33.226H88.0746V42.55C88.0746 42.682 88.0326 42.79 87.9486 42.874C87.8646 42.958 87.7566 43 87.6246 43H85.2486ZM93.8145 43C93.6825 43 93.5745 42.958 93.4905 42.874C93.4065 42.79 93.3645 42.682 93.3645 42.55V30.85C93.3645 30.718 93.4065 30.61 93.4905 30.526C93.5745 30.442 93.6825 30.4 93.8145 30.4H96.1905C96.3105 30.4 96.4125 30.442 96.4965 30.526C96.5925 30.61 96.6405 30.718 96.6405 30.85V40.282H102.076C102.208 40.282 102.316 40.33 102.4 40.426C102.496 40.51 102.544 40.618 102.544 40.75V42.55C102.544 42.682 102.496 42.79 102.4 42.874C102.316 42.958 102.208 43 102.076 43H93.8145ZM104.555 43C104.423 43 104.315 42.958 104.231 42.874C104.147 42.79 104.105 42.682 104.105 42.55V30.85C104.105 30.718 104.147 30.61 104.231 30.526C104.315 30.442 104.423 30.4 104.555 30.4H112.961C113.093 30.4 113.201 30.442 113.285 30.526C113.369 30.61 113.411 30.718 113.411 30.85V32.542C113.411 32.674 113.369 32.782 113.285 32.866C113.201 32.95 113.093 32.992 112.961 32.992H107.219V35.422H112.565C112.697 35.422 112.805 35.47 112.889 35.566C112.973 35.65 113.015 35.758 113.015 35.89V37.456C113.015 37.576 112.973 37.684 112.889 37.78C112.805 37.864 112.697 37.906 112.565 37.906H107.219V40.408H113.105C113.237 40.408 113.345 40.45 113.429 40.534C113.513 40.618 113.555 40.726 113.555 40.858V42.55C113.555 42.682 113.513 42.79 113.429 42.874C113.345 42.958 113.237 43 113.105 43H104.555ZM120.299 43.18C119.099 43.18 118.103 43.012 117.311 42.676C116.519 42.328 115.919 41.878 115.511 41.326C115.103 40.774 114.887 40.186 114.863 39.562C114.863 39.466 114.899 39.382 114.971 39.31C115.055 39.226 115.151 39.184 115.259 39.184H117.527C117.695 39.184 117.821 39.214 117.905 39.274C118.001 39.334 118.085 39.412 118.157 39.508C118.253 39.688 118.385 39.862 118.553 40.03C118.733 40.198 118.961 40.336 119.237 40.444C119.525 40.54 119.879 40.588 120.299 40.588C120.995 40.588 121.517 40.48 121.865 40.264C122.225 40.048 122.405 39.754 122.405 39.382C122.405 39.118 122.309 38.902 122.117 38.734C121.925 38.554 121.613 38.398 121.181 38.266C120.761 38.122 120.197 37.978 119.489 37.834C118.577 37.642 117.797 37.396 117.149 37.096C116.513 36.784 116.027 36.382 115.691 35.89C115.355 35.386 115.187 34.762 115.187 34.018C115.187 33.286 115.391 32.632 115.799 32.056C116.219 31.48 116.801 31.03 117.545 30.706C118.289 30.382 119.171 30.22 120.191 30.22C121.019 30.22 121.745 30.328 122.369 30.544C123.005 30.76 123.539 31.048 123.971 31.408C124.403 31.768 124.727 32.152 124.943 32.56C125.171 32.956 125.291 33.346 125.303 33.73C125.303 33.826 125.267 33.916 125.195 34C125.123 34.072 125.033 34.108 124.925 34.108H122.549C122.417 34.108 122.303 34.084 122.207 34.036C122.111 33.988 122.027 33.91 121.955 33.802C121.883 33.538 121.691 33.31 121.379 33.118C121.079 32.914 120.683 32.812 120.191 32.812C119.663 32.812 119.249 32.908 118.949 33.1C118.661 33.28 118.517 33.562 118.517 33.946C118.517 34.186 118.595 34.396 118.751 34.576C118.919 34.756 119.189 34.912 119.561 35.044C119.945 35.176 120.467 35.314 121.127 35.458C122.219 35.662 123.101 35.92 123.773 36.232C124.445 36.532 124.937 36.928 125.249 37.42C125.561 37.9 125.717 38.506 125.717 39.238C125.717 40.054 125.483 40.762 125.015 41.362C124.559 41.95 123.923 42.4 123.107 42.712C122.291 43.024 121.355 43.18 120.299 43.18ZM127.969 43C127.837 43 127.729 42.958 127.645 42.874C127.561 42.79 127.519 42.682 127.519 42.55V30.85C127.519 30.718 127.561 30.61 127.645 30.526C127.729 30.442 127.837 30.4 127.969 30.4H130.291C130.423 30.4 130.531 30.442 130.615 30.526C130.699 30.61 130.741 30.718 130.741 30.85V35.188H135.187V30.85C135.187 30.718 135.229 30.61 135.313 30.526C135.397 30.442 135.505 30.4 135.637 30.4H137.959C138.091 30.4 138.199 30.442 138.283 30.526C138.367 30.61 138.409 30.718 138.409 30.85V42.55C138.409 42.682 138.367 42.79 138.283 42.874C138.199 42.958 138.091 43 137.959 43H135.637C135.505 43 135.397 42.958 135.313 42.874C135.229 42.79 135.187 42.682 135.187 42.55V38.068H130.741V42.55C130.741 42.682 130.699 42.79 130.615 42.874C130.531 42.958 130.423 43 130.291 43H127.969ZM141.381 43C141.249 43 141.141 42.958 141.057 42.874C140.973 42.79 140.931 42.682 140.931 42.55V30.85C140.931 30.718 140.973 30.61 141.057 30.526C141.141 30.442 141.249 30.4 141.381 30.4H143.793C143.925 30.4 144.033 30.442 144.117 30.526C144.201 30.61 144.243 30.718 144.243 30.85V42.55C144.243 42.682 144.201 42.79 144.117 42.874C144.033 42.958 143.925 43 143.793 43H141.381ZM147.217 43C147.085 43 146.977 42.958 146.893 42.874C146.809 42.79 146.767 42.682 146.767 42.55V30.85C146.767 30.718 146.809 30.61 146.893 30.526C146.977 30.442 147.085 30.4 147.217 30.4H152.257C153.253 30.4 154.117 30.556 154.849 30.868C155.593 31.168 156.169 31.624 156.577 32.236C156.997 32.848 157.207 33.622 157.207 34.558C157.207 35.482 156.997 36.244 156.577 36.844C156.169 37.444 155.593 37.888 154.849 38.176C154.117 38.464 153.253 38.608 152.257 38.608H150.115V42.55C150.115 42.682 150.067 42.79 149.971 42.874C149.887 42.958 149.779 43 149.647 43H147.217ZM150.061 36.124H152.167C152.683 36.124 153.091 35.992 153.391 35.728C153.703 35.464 153.859 35.062 153.859 34.522C153.859 34.066 153.727 33.682 153.463 33.37C153.199 33.058 152.767 32.902 152.167 32.902H150.061V36.124Z" fill="black"/>
<g clip-path="url(#clip0_121_938)">
<path d="M32.5102 11.9399C31.5725 11.0022 30.3007 10.4755 28.9746 10.4755C27.6485 10.4755 26.3768 11.0022 25.4391 11.9399C24.7073 12.671 24.2202 13.611 24.045 14.6305C23.8698 15.65 24.0151 16.6987 24.4609 17.6321L23.0821 19.011L19.5465 15.4755L17.1895 17.8325L20.7251 21.368L10.2127 31.8803C9.49384 30.855 8.84566 29.7119 8.37426 28.5098C7.87928 27.2606 7.57287 26.0349 7.44323 24.7975C7.3136 23.56 7.37252 22.4169 7.63179 21.3562L11.297 21.368L10.1185 13.1184L6.58292 16.654C5.43976 17.7971 4.68552 19.1878 4.34375 20.8259C4.00198 22.464 3.96662 24.1964 4.28482 26.0231C4.55588 27.8027 5.10978 29.5351 5.91117 31.185C6.72434 32.8467 7.72607 34.2963 8.93994 35.5102C10.1538 36.724 11.6152 37.714 13.2769 38.5271C14.9268 39.3285 16.6592 39.8824 18.427 40.1653C20.2654 40.4953 21.9743 40.4599 23.6242 40.1063C25.2623 39.7646 26.653 39.0103 27.7961 37.8672L31.3317 34.3316L23.0821 33.1531L23.0939 36.8183C22.0332 37.0776 20.89 37.1365 19.6526 37.0069C18.4152 36.8772 17.1895 36.5708 15.9403 36.0758C14.7382 35.6044 13.5951 34.9563 12.5698 34.2374L23.0821 23.725L26.6176 27.2606L28.9746 24.9036L25.4391 21.368L26.8297 19.9774C27.7606 20.422 28.8062 20.5677 29.8232 20.3947C30.8401 20.2217 31.7787 19.7384 32.5102 19.011C33.4478 18.0733 33.9746 16.8015 33.9746 15.4755C33.9746 14.1494 33.4478 12.8776 32.5102 11.9399ZM30.1531 14.297C30.4657 14.6095 30.6413 15.0334 30.6413 15.4755C30.6413 15.9175 30.4657 16.3414 30.1531 16.654C29.8406 16.9665 29.4167 17.1421 28.9746 17.1421C28.5326 17.1421 28.1087 16.9665 27.7961 16.654C27.4836 16.3414 27.308 15.9175 27.308 15.4755C27.308 15.0334 27.4836 14.6095 27.7961 14.297C28.1087 13.9844 28.5326 13.8088 28.9746 13.8088C29.4167 13.8088 29.8406 13.9844 30.1531 14.297Z" fill="#7048EC"/>
</g>
<path d="M48.0196 23C47.8876 23 47.7796 22.958 47.6956 22.874C47.6116 22.79 47.5696 22.682 47.5696 22.55V10.85C47.5696 10.718 47.6116 10.61 47.6956 10.526C47.7796 10.442 47.8876 10.4 48.0196 10.4H52.6996C53.8756 10.4 54.8776 10.592 55.7056 10.976C56.5336 11.348 57.1696 11.9 57.6136 12.632C58.0576 13.352 58.2976 14.246 58.3336 15.314C58.3456 15.842 58.3516 16.304 58.3516 16.7C58.3516 17.096 58.3456 17.552 58.3336 18.068C58.2856 19.184 58.0456 20.108 57.6136 20.84C57.1936 21.572 56.5756 22.118 55.7596 22.478C54.9556 22.826 53.9656 23 52.7896 23H48.0196ZM50.7916 20.408H52.6996C53.2156 20.408 53.6416 20.33 53.9776 20.174C54.3256 20.006 54.5836 19.748 54.7516 19.4C54.9316 19.052 55.0276 18.596 55.0396 18.032C55.0636 17.684 55.0756 17.372 55.0756 17.096C55.0876 16.82 55.0876 16.544 55.0756 16.268C55.0756 15.992 55.0636 15.686 55.0396 15.35C55.0156 14.534 54.7996 13.94 54.3916 13.568C53.9956 13.184 53.4016 12.992 52.6096 12.992H50.7916V20.408ZM60.9043 23C60.7723 23 60.6643 22.958 60.5803 22.874C60.4963 22.79 60.4543 22.682 60.4543 22.55V10.85C60.4543 10.718 60.4963 10.61 60.5803 10.526C60.6643 10.442 60.7723 10.4 60.9043 10.4H69.3103C69.4423 10.4 69.5503 10.442 69.6343 10.526C69.7183 10.61 69.7603 10.718 69.7603 10.85V12.542C69.7603 12.674 69.7183 12.782 69.6343 12.866C69.5503 12.95 69.4423 12.992 69.3103 12.992H63.5683V15.422H68.9143C69.0463 15.422 69.1543 15.47 69.2383 15.566C69.3223 15.65 69.3643 15.758 69.3643 15.89V17.456C69.3643 17.576 69.3223 17.684 69.2383 17.78C69.1543 17.864 69.0463 17.906 68.9143 17.906H63.5683V20.408H69.4543C69.5863 20.408 69.6943 20.45 69.7783 20.534C69.8623 20.618 69.9043 20.726 69.9043 20.858V22.55C69.9043 22.682 69.8623 22.79 69.7783 22.874C69.6943 22.958 69.5863 23 69.4543 23H60.9043Z" fill="black"/>
<defs>
<clipPath id="clip0_121_938">
<rect width="40" height="40" fill="white" transform="translate(0 3)"/>
</clipPath>
</defs>
</svg>
