<svg width="24" height="25" viewBox="0 0 24 25" fill="none" xmlns="http://www.w3.org/2000/svg">
<path d="M21.3175 7.24665L20.8239 6.39005C20.4506 5.74222 20.264 5.41831 19.9464 5.28914C19.6288 5.15998 19.2696 5.2619 18.5513 5.46574L17.3311 5.80944C16.8725 5.9152 16.3913 5.8552 15.9726 5.64005L15.6357 5.44568C15.2766 5.21569 15.0004 4.87659 14.8475 4.478L14.5136 3.48062C14.294 2.8206 14.1842 2.49059 13.9228 2.30183C13.6615 2.11307 13.3143 2.11307 12.6199 2.11307H11.5051C10.8108 2.11307 10.4636 2.11307 10.2022 2.30183C9.94085 2.49059 9.83106 2.8206 9.61149 3.48062L9.27753 4.478C9.12465 4.87659 8.84845 5.21569 8.48937 5.44568L8.15249 5.64005C7.73374 5.8552 7.25259 5.9152 6.79398 5.80944L5.57375 5.46574C4.85541 5.2619 4.49625 5.15998 4.17867 5.28914C3.86109 5.41831 3.67445 5.74222 3.30115 6.39005L2.80757 7.24665C2.45766 7.8539 2.2827 8.15753 2.31666 8.48075C2.35061 8.80397 2.58483 9.06444 3.05326 9.58538L4.0843 10.7381C4.3363 11.0571 4.51521 11.6131 4.51521 12.113C4.51521 12.6131 4.33636 13.1689 4.08433 13.488L3.05326 14.6407C2.58483 15.1617 2.35062 15.4221 2.31666 15.7454C2.2827 16.0686 2.45766 16.3722 2.80757 16.9794L3.30114 17.836C3.67443 18.4838 3.86109 18.8078 4.17867 18.9369C4.49625 19.0661 4.85542 18.9642 5.57377 18.7603L6.79394 18.4166C7.25263 18.3108 7.73387 18.3709 8.15267 18.5861L8.4895 18.7805C8.84851 19.0105 9.12464 19.3495 9.2775 19.7481L9.61149 20.7456C9.83106 21.4056 9.94085 21.7356 10.2022 21.9244C10.4636 22.1131 10.8108 22.1131 11.5051 22.1131H12.6199C13.3143 22.1131 13.6615 22.1131 13.9228 21.9244C14.1842 21.7356 14.294 21.4056 14.5136 20.7456L14.8476 19.7481C15.0004 19.3495 15.2765 19.0105 15.6356 18.7805L15.9724 18.5861C16.3912 18.3709 16.8724 18.3108 17.3311 18.4166L18.5513 18.7603C19.2696 18.9642 19.6288 19.0661 19.9464 18.9369C20.264 18.8078 20.4506 18.4838 20.8239 17.836L21.3175 16.9794C21.6674 16.3722 21.8423 16.0686 21.8084 15.7454C21.7744 15.4221 21.5402 15.1617 21.0718 14.6407L20.0407 13.488C19.7887 13.1689 19.6098 12.6131 19.6098 12.113C19.6098 11.6131 19.7888 11.0571 20.0407 10.7381L21.0718 9.58538C21.5402 9.06444 21.7744 8.80397 21.8084 8.48075C21.8423 8.15753 21.6674 7.8539 21.3175 7.24665Z" stroke="#2A353D" stroke-width="1.5" stroke-linecap="round"/>
<path d="M15.5195 12.1053C15.5195 14.0383 13.9525 15.6053 12.0195 15.6053C10.0865 15.6053 8.51953 14.0383 8.51953 12.1053C8.51953 10.1723 10.0865 8.60526 12.0195 8.60526C13.9525 8.60526 15.5195 10.1723 15.5195 12.1053Z" stroke="#2A353D" stroke-width="1.5"/>
</svg>
