<svg width="24" height="25" viewBox="0 0 24 25" fill="none" xmlns="http://www.w3.org/2000/svg">
<path d="M18.5045 19.1053H18.9457C19.9805 19.1053 20.8036 18.6337 21.5427 17.9744C23.4202 16.2995 19.0067 14.6051 17.5 14.6051" stroke="#2A353D" stroke-width="1.5" stroke-linecap="round" stroke-linejoin="round"/>
<path d="M15 5.17403C15.2271 5.12899 15.4629 5.10526 15.7048 5.10526C17.5247 5.10526 19 6.44841 19 8.10526C19 9.76211 17.5247 11.1053 15.7048 11.1053C15.4629 11.1053 15.2271 11.0816 15 11.0365" stroke="#2A353D" stroke-width="1.5" stroke-linecap="round"/>
<path d="M4.78256 15.2165C3.68218 15.8483 0.797062 17.1384 2.55429 18.7527C3.41269 19.5413 4.36872 20.1053 5.57068 20.1053H12.4293C13.6313 20.1053 14.5873 19.5413 15.4457 18.7527C17.2029 17.1384 14.3178 15.8483 13.2174 15.2165C10.6371 13.7349 7.36292 13.7349 4.78256 15.2165Z" stroke="#2A353D" stroke-width="1.5" stroke-linecap="round" stroke-linejoin="round"/>
<path d="M13 7.10526C13 9.3144 11.2091 11.1053 9 11.1053C6.79086 11.1053 5 9.3144 5 7.10526C5 4.89612 6.79086 3.10526 9 3.10526C11.2091 3.10526 13 4.89612 13 7.10526Z" stroke="#2A353D" stroke-width="1.5"/>
</svg>
