<svg width="24" height="25" viewBox="0 0 24 25" fill="none" xmlns="http://www.w3.org/2000/svg">
<path d="M6.57757 15.5868C5.1628 16.4292 1.45336 18.1493 3.71266 20.3018C4.81631 21.3532 6.04549 22.1052 7.59087 22.1052H16.4091C17.9545 22.1052 19.1837 21.3532 20.2873 20.3018C22.5466 18.1493 18.8372 16.4292 17.4224 15.5868C14.1048 13.6113 9.89519 13.6113 6.57757 15.5868Z" stroke="#2A353D" stroke-width="1.5" stroke-linecap="round" stroke-linejoin="round"/>
<path d="M16.5 6.60526C16.5 9.09054 14.4853 11.1053 12 11.1053C9.51472 11.1053 7.5 9.09054 7.5 6.60526C7.5 4.11998 9.51472 2.10526 12 2.10526C14.4853 2.10526 16.5 4.11998 16.5 6.60526Z" stroke="#2A353D" stroke-width="1.5"/>
</svg>
